HIERARCHY
ROOT Hips
{
     OFFSET 24.59950 99.02860 -26.77010
     CHANNELS 6 Xposition Yposition Zposition Zrotation Xrotation Yrotation
     JOINT Spine
     {
          OFFSET 0.00000 11.89050 0.00000
          CHANNELS 3 Zrotation Xrotation Yrotation
          JOINT Spine1
          {
               OFFSET 0.00000 25.65740 0.12766
               CHANNELS 3 Zrotation Xrotation Yrotation
               JOINT HEad
               {
                    OFFSET 0.00000 8.73416 0.01134
                    CHANNELS 3 Zrotation Xrotation Yrotation
                    End Site
                    {
                         OFFSET -0.29000 12.77420 2.51395
                    }
               }
               JOINT LeftShoulder1
               {
                    OFFSET 8.99000 -0.36225 -0.22000
                    CHANNELS 3 Zrotation Xrotation Yrotation
                    JOINT LeftArm
                    {
                         OFFSET 10.28270 -0.00338 0.32212
                         CHANNELS 3 Zrotation Xrotation Yrotation
                         JOINT LeftForeArm
                         {
                              OFFSET 32.76690 0.09914 -1.42434
                              CHANNELS 3 Zrotation Xrotation Yrotation
                              JOINT LeftHand
                              {
                                   OFFSET 27.56430 0.08536 1.02216
                                   CHANNELS 3 Zrotation Xrotation Yrotation
                                   End Site
                                   {
                                        OFFSET 16.74430 -0.60000 1.50291
                                   }
                              }
                         }
                    }
               }
               JOINT RightShoulder
               {
                    OFFSET -8.99000 -0.36225 -0.22000
                    CHANNELS 3 Zrotation Xrotation Yrotation
                    JOINT RightArm
                    {
                         OFFSET -10.28270 -0.00338 0.32212
                         CHANNELS 3 Zrotation Xrotation Yrotation
                         JOINT RightForeArm
                         {
                              OFFSET -32.89710 0.09914 -1.42434
                              CHANNELS 3 Zrotation Xrotation Yrotation
                              JOINT RightHand
                              {
                                   OFFSET -27.49210 0.08536 1.02216
                                   CHANNELS 3 Zrotation Xrotation Yrotation
                                   End Site
                                   {
                                        OFFSET -16.63120 -0.60000 1.50291
                                   }
                              }
                         }
                    }
               }
          }
     }
     JOINT LeftUpLeg
     {
          OFFSET 8.94580 -8.66707 0.10165
          CHANNELS 3 Zrotation Xrotation Yrotation
          JOINT LeftLeg
          {
               OFFSET 0.00000 -44.42270 1.37270
               CHANNELS 3 Zrotation Xrotation Yrotation
               JOINT LeftFoot
               {
                    OFFSET -0.25355 -42.09240 -1.46059
                    CHANNELS 3 Zrotation Xrotation Yrotation
                    JOINT LeftToes
                    {
                         OFFSET -0.04000 -4.41509 8.49910
                         CHANNELS 3 Zrotation Xrotation Yrotation
                         End Site
                         {
                              OFFSET 0.08000 -0.04745 9.77979
                         }
                    }
               }
          }
     }
     JOINT RightUpLeg
     {
          OFFSET -8.94580 -8.66707 0.10165
          CHANNELS 3 Zrotation Xrotation Yrotation
          JOINT RightLeg
          {
               OFFSET 0.00000 -44.42270 1.37270
               CHANNELS 3 Zrotation Xrotation Yrotation
               JOINT RightFoot
               {
                    OFFSET 0.25355 -42.09240 -1.46059
                    CHANNELS 3 Zrotation Xrotation Yrotation
                    JOINT RightToes
                    {
                         OFFSET 0.04000 -4.41509 8.49910
                         CHANNELS 3 Zrotation Xrotation Yrotation
                         End Site
                         {
                              OFFSET -0.08000 -0.13745 9.77979
                         }
                    }
               }
          }
     }
}
MOTION
Frames: 19
Frame Time: 0.01667
24.59950 99.02860 -26.77010 -9.93040 -11.62650 -25.90460 6.38175 7.18789 0.25989 2.50214 15.34920 2.25107 -11.24210 16.86350 6.58111 0.00000 0.00000 0.00000 -89.14680 -34.88610 -64.04290 18.54490 34.16300 -106.97400 29.46780 14.30790 21.78310 10.53720 1.02385 4.69116 68.54980 -14.55310 82.78150 -5.75420 28.53150 91.85020 -10.04360 8.82308 9.02222 14.13640 -10.41560 2.34771 -1.63804 26.24690 -0.83668 -10.98210 2.04400 0.90409 -5.19088 -5.23131 -4.80177 -3.93887 10.38090 -2.94094 2.37834 29.93590 -1.89069 19.39270 -27.90230 3.29818 12.66080 35.07410 -21.44730 
24.98840 98.65350 -26.17280 -10.47420 -11.69880 -26.41930 6.55088 7.29780 0.19520 2.74006 15.57260 2.24725 -11.12710 16.59330 6.47613 0.00000 0.00000 0.00000 -89.67520 -34.81570 -63.77170 19.24160 34.22140 -107.92000 28.59140 14.45540 22.94410 10.62760 1.03487 4.73339 67.83180 -14.45290 83.18860 -6.02798 28.09600 91.42550 -10.03740 8.79258 9.40497 14.13060 -9.74208 1.97754 -1.72849 26.74750 -0.67714 -10.31510 1.37561 0.79130 -5.76369 -5.56146 -5.76446 -3.79322 11.30640 -2.94898 2.04292 29.43940 -1.43318 19.10060 -29.22320 3.47673 12.83010 35.51780 -21.27920 
25.44040 98.25340 -25.52530 -11.00520 -11.75490 -26.95900 6.65734 7.39298 0.15675 2.98518 15.75360 2.26869 -11.02040 16.49290 6.28548 0.00000 0.00000 0.00000 -90.16230 -34.68160 -63.53540 20.06060 34.27510 -109.03600 27.41910 14.59780 24.38020 10.68090 1.03503 4.71211 66.96620 -14.50560 83.71120 -6.31794 27.66850 90.94350 -10.02640 8.76276 9.78678 14.10000 -9.11581 1.58331 -1.95403 27.35690 0.10449 -9.15626 0.38932 0.62677 -7.14138 -6.85301 -6.87501 -3.75365 12.21970 -2.89716 1.76974 28.93070 -0.92963 18.64450 -30.41210 3.59124 12.78350 35.56270 -21.01170 
25.96420 97.84880 -24.83940 -11.50070 -11.73670 -27.50770 6.68930 7.45555 0.13870 3.25720 15.85430 2.27047 -10.89520 16.54930 6.05104 0.00000 0.00000 0.00000 -90.56270 -34.51100 -63.34740 21.08390 34.27590 -110.36900 25.92100 14.72930 26.17480 10.66450 1.02387 4.63805 65.99840 -14.73500 84.33290 -6.62595 27.26270 90.46340 -9.94775 8.74762 10.09350 14.05280 -8.65415 1.30873 -2.23025 28.03680 1.37229 -7.63950 -0.65607 0.45649 -9.19136 -8.85897 -8.18677 -3.81909 12.96830 -2.81495 1.56402 28.50090 -0.38775 17.90790 -31.19420 3.56508 12.31410 34.83620 -20.49630 
26.56740 97.47600 -24.13610 -11.96050 -11.61960 -28.07730 6.64487 7.49101 0.12292 3.58500 15.88220 2.19469 -10.77670 16.71100 5.86965 0.00000 0.00000 0.00000 -90.83300 -34.37590 -63.20840 22.33210 34.18470 -111.91300 24.17160 14.83610 28.32220 10.53070 0.99952 4.51586 64.97020 -15.10470 85.03740 -7.13393 26.87210 90.10280 -9.76573 8.75331 10.31030 14.00050 -8.41212 1.34046 -2.42748 28.77680 2.74276 -6.03586 -1.50118 0.31874 -11.58190 -11.15190 -9.61821 -3.99906 13.39610 -2.69419 1.45695 28.30690 0.13701 16.95040 -31.27010 3.36582 11.30970 33.07080 -19.65620 
27.26090 97.17110 -23.43450 -12.40330 -11.41670 -28.73140 6.50819 7.51989 0.09373 3.98356 15.88530 2.02205 -10.77600 16.99700 5.81717 0.00000 0.00000 0.00000 -90.48380 -34.06420 -62.92170 23.62130 33.57870 -113.26700 22.33520 14.90980 30.72810 10.26560 0.96129 4.34187 63.88980 -15.55520 85.80750 -8.20902 26.48580 90.02290 -9.52935 8.77013 10.48310 13.96720 -8.36830 1.82852 -2.46143 29.60200 3.82722 -4.64111 -2.03885 0.22500 -13.89180 -13.30390 -10.95350 -4.34974 13.30190 -2.43261 1.50488 28.67090 0.57746 16.24610 -30.49440 3.09290 9.95482 30.46440 -18.66270 
28.06230 96.98850 -22.77980 -12.87460 -11.12730 -29.61020 6.33058 7.57030 0.05740 4.44171 15.92180 1.78534 -11.03580 17.51320 5.94759 0.00000 0.00000 0.00000 -89.85030 -33.90840 -62.63630 24.75410 32.93380 -114.35700 20.72600 14.95940 33.09070 9.91502 0.91500 4.13455 62.73480 -16.04910 86.61440 -10.19990 26.09390 90.36620 -9.34808 8.78004 10.66130 14.04110 -8.36481 2.70462 -2.45644 30.31170 4.64709 -3.64526 -2.19864 0.17187 -15.79720 -15.05100 -11.99890 -4.93379 12.41430 -1.91547 1.78954 29.94550 0.93483 16.35160 -28.73030 2.84883 8.64757 27.71400 -17.85250 
28.98320 96.96810 -22.19900 -13.37150 -10.74570 -30.86690 6.12160 7.66647 0.03514 4.91980 16.03250 1.53249 -11.66730 18.30310 6.33494 0.00000 0.00000 0.00000 -89.12370 -34.15840 -62.43850 25.51050 32.58980 -114.99400 19.56680 15.01160 35.11730 9.51806 0.86930 3.94008 61.52630 -16.57710 87.42860 -12.96430 25.69070 91.07910 -9.31136 8.76893 10.87220 14.26230 -8.19125 3.63197 -2.74431 30.60380 5.69538 -2.98318 -2.04114 0.14336 -17.13330 -16.27750 -12.68110 -5.83932 10.42940 -1.12619 2.39867 32.41420 1.28596 17.38460 -25.75410 2.57797 7.88479 25.91720 -17.70710 
30.01030 97.10590 -21.71520 -13.84860 -10.27690 -32.59450 5.82329 7.82465 0.05246 5.38257 16.23740 1.29340 -12.69640 19.23030 7.04403 0.00000 0.00000 0.00000 -88.36330 -34.95890 -62.40640 25.79780 32.69880 -114.96700 18.91550 15.08700 36.63380 9.07203 0.82870 3.79509 60.34370 -17.14750 88.23970 -15.52400 25.30150 91.75780 -9.45520 8.72902 11.14370 14.57400 -7.71809 4.24152 -3.56250 30.28730 7.48167 -2.39058 -1.76603 0.11829 -17.83920 -16.93220 -13.01720 -7.07984 7.10238 -0.25151 3.32563 36.16730 1.80105 18.97250 -21.32350 2.08584 8.38211 26.65810 -18.99660 
31.09960 97.35680 -21.33510 -14.29570 -9.74205 -34.77940 5.36818 8.05749 0.12823 5.82276 16.55230 1.07194 -13.99390 20.10400 8.07802 0.00000 0.00000 0.00000 -87.57420 -36.37560 -62.66180 25.73860 33.30000 -114.19200 18.68560 15.19340 37.67200 8.61164 0.79415 3.69676 59.23510 -17.78280 89.05430 -16.64340 24.99310 91.89290 -9.78152 8.65762 11.48650 14.88990 -6.95162 4.39625 -4.79589 29.41300 10.06670 -1.67893 -1.60364 0.08299 -17.87790 -16.98340 -13.01160 -8.49795 2.41977 0.33749 4.36013 40.98090 2.73220 20.70200 -15.35490 1.20840 11.13180 31.37430 -22.48250 
32.19190 97.66210 -21.03840 -14.78810 -9.17488 -37.26470 4.76975 8.36556 0.23866 6.26322 16.99700 0.83257 -15.27590 20.87870 9.38721 0.00000 0.00000 0.00000 -85.27170 -37.47400 -62.62250 25.39650 33.01900 -111.87300 18.56960 15.31600 38.61900 8.24958 0.76773 3.62086 58.19040 -18.50620 89.87480 -15.85360 24.79120 91.31980 -10.27080 8.55691 11.87970 15.19310 -5.99080 4.20673 -6.09527 28.24530 13.06200 -0.88684 -1.70363 0.04086 -17.22320 -16.41850 -12.63400 -9.83184 -3.32298 0.27347 5.19959 46.39320 4.19559 22.45010 -8.09802 -0.08693 16.27280 38.79830 -27.50750 
33.24960 97.99050 -20.78410 -15.46430 -8.59642 -39.77030 4.20187 8.73681 0.29585 6.75202 17.59420 0.49051 -16.25630 21.59540 10.89510 0.00000 0.00000 0.00000 -81.57050 -38.35080 -62.31790 25.12560 32.09040 -108.28200 18.53300 15.46390 39.57640 8.08115 0.75282 3.56127 57.23540 -19.32200 90.69080 -13.61580 24.64470 90.28940 -10.88290 8.43391 12.28300 15.56400 -4.91754 3.85354 -7.17742 27.04780 15.95330 -0.16264 -2.08295 0.00489 -15.92030 -15.26570 -11.89840 -10.91950 -9.62709 -0.57264 5.85407 51.92510 5.73969 24.34510 -0.26257 -1.71921 21.49790 45.19730 -31.42500 
34.28130 98.32190 -20.52970 -16.47000 -7.97361 -42.01120 4.00939 9.16656 0.18820 7.35232 18.36260 -0.04588 -16.83290 22.17290 12.48950 0.00000 0.00000 0.00000 -76.26990 -38.82660 -61.53880 24.98460 30.51840 -103.31100 18.58650 15.62360 40.42910 8.08936 0.74997 3.53307 56.49100 -20.20830 91.48310 -10.76180 24.51070 89.21100 -11.54790 8.30519 12.61620 16.15510 -3.80303 3.43471 -7.96207 26.01920 18.39230 0.35817 -2.67018 -0.01515 -14.17080 -13.68090 -10.90640 -11.81230 -16.06220 -2.07546 6.96441 57.38810 6.15230 26.38410 6.98323 -3.49305 24.85100 49.22820 -33.02680 
35.30160 98.70410 -20.27670 -17.78130 -7.33051 -43.82680 4.23048 9.67109 -0.09816 8.08281 19.30560 -0.81047 -17.10720 22.37130 14.02950 0.00000 0.00000 0.00000 -69.26990 -38.62900 -60.07530 24.71240 28.33860 -96.64200 18.78560 15.75770 40.84040 8.18095 0.75547 3.54329 56.09080 -21.12850 92.22410 -8.14763 24.40950 88.46000 -12.15590 8.20047 12.75700 16.94120 -2.49953 2.96633 -8.45031 24.82650 20.25440 0.64886 -3.10428 -0.02276 -12.35190 -12.01980 -9.81141 -12.82370 -22.36970 -4.06430 9.58765 62.78720 3.96751 28.06280 12.46830 -5.03826 27.02340 51.86710 -33.73500 
36.30980 99.12810 -20.02920 -19.30090 -6.72139 -45.18940 4.75853 10.25430 -0.51432 8.92712 20.39520 -1.76676 -17.29400 21.99920 15.41330 0.00000 0.00000 0.00000 -60.85690 -37.51110 -57.94680 23.94460 25.64940 -88.05720 19.24000 15.82890 40.39660 8.28908 0.76473 3.57893 56.05950 -22.05540 92.88130 -6.57587 24.38930 88.31980 -12.58340 8.15067 12.61980 17.82680 -0.96644 2.47096 -8.66127 23.34010 21.56630 0.73469 -3.17492 -0.02531 -10.84660 -10.68870 -8.74608 -14.31910 -28.47710 -6.59265 14.80820 68.25220 -1.72445 28.75850 15.46090 -5.90742 29.12290 54.01490 -34.81210 
37.28010 99.52430 -19.78000 -20.94440 -6.20574 -46.14250 5.45162 10.89500 -1.00055 9.87647 21.57750 -2.84564 -17.66820 21.11550 16.62730 0.00000 0.00000 0.00000 -51.72560 -35.37320 -55.47850 22.45360 22.56510 -77.67640 20.11840 15.81430 38.75270 8.42031 0.77600 3.62162 56.29320 -22.98360 93.42100 -6.49446 24.45640 88.89090 -12.76090 8.16315 12.25460 18.74420 0.66327 1.98426 -8.65688 21.83430 22.42550 0.65864 -2.99900 -0.02440 -9.80240 -9.86136 -7.77144 -16.57200 -34.33870 -9.95317 23.71700 73.73140 -11.36090 28.54220 16.09520 -6.01732 31.21580 55.80950 -36.19020 
38.16690 99.84810 -19.52290 -22.64170 -5.85851 -46.74820 6.12071 11.54990 -1.50656 10.90820 22.78220 -3.98515 -18.40860 19.99760 17.68260 0.00000 0.00000 0.00000 -42.73400 -32.36880 -53.15580 20.24920 19.23350 -65.99430 21.56910 15.68620 35.77030 8.61136 0.79020 3.66381 56.65030 -23.90400 93.80810 -7.64902 24.55480 89.99700 -12.72240 8.21173 11.84970 19.63960 2.28229 1.48681 -8.55413 20.57580 22.95020 0.50222 -2.83844 -0.01969 -9.02927 -9.32999 -6.85456 -19.74840 -39.82130 -14.45540 38.28190 78.85720 -26.35880 28.13560 15.48470 -5.78079 32.71330 57.03560 -37.15330 
38.92340 100.12600 -19.25560 -24.33100 -5.73908 -47.05930 6.58811 12.16380 -2.00350 11.99680 23.93460 -5.14712 -19.44940 19.00390 18.55050 0.00000 0.00000 0.00000 -34.55690 -28.86960 -51.38290 17.51620 15.86300 -53.68970 23.58240 15.39230 31.63950 8.87804 0.80853 3.70839 57.03770 -24.78350 94.02660 -9.24593 24.63250 91.27640 -12.57320 8.25889 11.60190 20.46850 3.93593 0.90026 -8.46347 19.49810 23.23230 0.36166 -2.86600 -0.01350 -8.13453 -8.62341 -5.92326 -23.91130 -44.73510 -20.16320 64.21170 82.92990 -52.37000 28.17240 15.10230 -5.69596 33.40400 57.65810 -37.49390 
39.53140 100.37900 -18.96590 -25.98720 -5.82206 -47.11920 6.86490 12.69770 -2.49611 13.12520 24.97860 -6.31460 -20.58420 18.40870 19.21130 0.00000 0.00000 0.00000 -27.53310 -25.33660 -50.35110 14.45800 12.72230 -41.40770 25.92940 14.88700 26.86890 9.21191 0.83195 3.76559 57.42880 -25.58600 94.10270 -10.53670 24.69410 92.43110 -12.39920 8.28616 11.57350 21.24320 5.60621 0.16892 -8.42234 18.57900 23.33380 0.24254 -3.19938 -0.00578 -6.83794 -7.33994 -5.01370 -29.03300 -48.96140 -26.85290 109.49200 84.60360 -97.61740 28.86540 15.76370 -6.00548 33.73090 57.87480 -37.75520 
